<mxfile host="app.diagrams.net" modified="2021-04-27T16:10:03.299Z" agent="5.0 (X11; Linux x86_64) AppleWebKit/537.36 (KHTML, like Gecko) Chrome/90.0.4430.72 Safari/537.36" etag="3ptJxP_fG3dzfv1Kvn9l" version="14.5.3" type="github">
  <diagram id="W_Gp31Lv89BfYTgkx-_t" name="Page-1">
    <mxGraphModel dx="1422" dy="741" grid="1" gridSize="10" guides="1" tooltips="1" connect="1" arrows="1" fold="1" page="1" pageScale="1" pageWidth="827" pageHeight="1169" math="1" shadow="0">
      <root>
        <mxCell id="0" />
        <mxCell id="1" parent="0" />
        <mxCell id="GIEwC9xjHq5fHoFhXlIX-30" value="" style="rounded=0;whiteSpace=wrap;html=1;dashed=1;dashPattern=1 1;strokeWidth=2;opacity=90;fillColor=none;strokeColor=#666666;" vertex="1" parent="1">
          <mxGeometry x="140" y="470" width="300" height="60" as="geometry" />
        </mxCell>
        <mxCell id="GIEwC9xjHq5fHoFhXlIX-28" style="edgeStyle=none;rounded=0;orthogonalLoop=1;jettySize=auto;html=1;exitX=0.5;exitY=0;exitDx=0;exitDy=0;strokeColor=#004000;strokeWidth=4;" edge="1" parent="1" source="GIEwC9xjHq5fHoFhXlIX-22" target="Uv_JVgX45lE9spc81KCM-18">
          <mxGeometry relative="1" as="geometry" />
        </mxCell>
        <mxCell id="GIEwC9xjHq5fHoFhXlIX-22" value="" style="rounded=0;whiteSpace=wrap;html=1;dashed=1;strokeColor=#FF3399;strokeWidth=2;fillColor=none;dashPattern=1 1;" vertex="1" parent="1">
          <mxGeometry x="170" y="200" width="230" height="270" as="geometry" />
        </mxCell>
        <mxCell id="I6eLt330WT-DuvhPRt3Y-33" value="&lt;font style=&quot;font-size: 15px&quot;&gt;Categorical Field 1&lt;/font&gt;" style="rounded=0;whiteSpace=wrap;html=1;fillColor=#FFFFFF;fontStyle=1;fontSize=13;" parent="1" vertex="1">
          <mxGeometry x="130" y="540" width="90" height="40" as="geometry" />
        </mxCell>
        <mxCell id="I6eLt330WT-DuvhPRt3Y-34" value="&lt;font style=&quot;font-size: 14px&quot;&gt;Categorical Field 2&lt;/font&gt;" style="rounded=0;whiteSpace=wrap;html=1;fillColor=#FFFFFF;fontStyle=1;fontSize=13;" parent="1" vertex="1">
          <mxGeometry x="230" y="540" width="80" height="40" as="geometry" />
        </mxCell>
        <mxCell id="I6eLt330WT-DuvhPRt3Y-39" value="" style="shape=singleArrow;whiteSpace=wrap;html=1;fillColor=#d5e8d4;rotation=-90;gradientColor=#97d077;strokeColor=#82b366;arrowWidth=0.2139561244419724;arrowSize=0.2672731236049094;" parent="1" vertex="1">
          <mxGeometry x="162.5" y="517.5" width="25" height="20" as="geometry" />
        </mxCell>
        <mxCell id="I6eLt330WT-DuvhPRt3Y-40" value="" style="shape=singleArrow;whiteSpace=wrap;html=1;fillColor=#d5e8d4;rotation=-90;gradientColor=#97d077;strokeColor=#82b366;arrowWidth=0.2139561244419724;arrowSize=0.2672731236049094;" parent="1" vertex="1">
          <mxGeometry x="245" y="517.5" width="25" height="20" as="geometry" />
        </mxCell>
        <mxCell id="I6eLt330WT-DuvhPRt3Y-46" value="" style="ellipse;whiteSpace=wrap;html=1;aspect=fixed;fillColor=#001C0E;" parent="1" vertex="1">
          <mxGeometry x="320" y="550" width="10" height="10" as="geometry" />
        </mxCell>
        <mxCell id="I6eLt330WT-DuvhPRt3Y-45" value="" style="ellipse;whiteSpace=wrap;html=1;aspect=fixed;fillColor=#001C0E;" parent="1" vertex="1">
          <mxGeometry x="340" y="550" width="10" height="10" as="geometry" />
        </mxCell>
        <mxCell id="I6eLt330WT-DuvhPRt3Y-44" value="" style="ellipse;whiteSpace=wrap;html=1;aspect=fixed;fillColor=#001C0E;" parent="1" vertex="1">
          <mxGeometry x="360" y="550" width="10" height="10" as="geometry" />
        </mxCell>
        <mxCell id="I6eLt330WT-DuvhPRt3Y-48" value="&lt;font style=&quot;font-size: 14px&quot;&gt;Numerical&lt;br&gt;Fields&lt;/font&gt;" style="rounded=0;whiteSpace=wrap;html=1;fillColor=#FFFFFF;fontStyle=1;fontSize=13;" parent="1" vertex="1">
          <mxGeometry x="379" y="540" width="71" height="40" as="geometry" />
        </mxCell>
        <mxCell id="I6eLt330WT-DuvhPRt3Y-50" value="" style="shape=singleArrow;whiteSpace=wrap;html=1;fillColor=#d5e8d4;rotation=-90;gradientColor=#97d077;strokeColor=#82b366;arrowWidth=0.2139561244419724;arrowSize=0.2672731236049094;" parent="1" vertex="1">
          <mxGeometry x="397" y="517.5" width="25" height="20" as="geometry" />
        </mxCell>
        <mxCell id="GIEwC9xjHq5fHoFhXlIX-18" style="edgeStyle=none;rounded=0;orthogonalLoop=1;jettySize=auto;html=1;entryX=0;entryY=0.5;entryDx=0;entryDy=0;strokeColor=#004000;strokeWidth=4;" edge="1" parent="1" source="Uv_JVgX45lE9spc81KCM-2" target="GIEwC9xjHq5fHoFhXlIX-16">
          <mxGeometry relative="1" as="geometry" />
        </mxCell>
        <mxCell id="Uv_JVgX45lE9spc81KCM-2" value="Bottleneck" style="rounded=1;whiteSpace=wrap;html=1;fillColor=#FFFFFF;fontSize=14;fontStyle=1" parent="1" vertex="1">
          <mxGeometry x="230" y="320" width="120" height="30" as="geometry" />
        </mxCell>
        <mxCell id="GIEwC9xjHq5fHoFhXlIX-19" style="edgeStyle=none;rounded=0;orthogonalLoop=1;jettySize=auto;html=1;entryX=0.5;entryY=1;entryDx=0;entryDy=0;strokeColor=#004000;strokeWidth=4;" edge="1" parent="1" source="Uv_JVgX45lE9spc81KCM-4" target="GIEwC9xjHq5fHoFhXlIX-16">
          <mxGeometry relative="1" as="geometry" />
        </mxCell>
        <mxCell id="Uv_JVgX45lE9spc81KCM-4" value="" style="shape=image;verticalLabelPosition=bottom;labelBackgroundColor=#ffffff;verticalAlign=top;aspect=fixed;imageAspect=0;image=data:image/jpeg,/9j/4AAQSkZJRgABAQAAAQABAAD/2wCEAAkGBxMTEhMUExIWFhMXGSIbGBgYGSAeIRwiISUfHyEiISIiISgiIiAmHyAgITQiKCkrLi8xICA0OTQtOCotLisBCgoKDg0OGhAQGi0lHyUtLS0tLS0tLS0tLS0tLS0tLS0tLS0tLS0tLS0tLS0tLS0tLS0tLS0tLS0tLS0tLS0tLf/AABEIALcBEwMBIgACEQEDEQH/xAAbAAADAAMBAQAAAAAAAAAAAAADBAUAAQIGB//EADsQAAICAQMEAQMDAgYBAwIHAAECAxEEABIhBRMiMUEUMlEGI2FCcRUkM1KBkUOhscFTYhY0NWNygqL/xAAYAQEBAQEBAAAAAAAAAAAAAAAAAQIEA//EABgRAQEBAQEAAAAAAAAAAAAAAAABESFB/9oADAMBAAIRAxEAPwCinRj9KJIi+Mn+r3W5aWQHkupIUqwFgEH3djUXoeevUUhRiInkkLMsXMbFPe9R5xbwR5K20/8ANGzFjyxB45CwxGi2w4qsHeQrzvG0N744sjnnU3qXTQrY2NFFLHir+9JEoRe492AzOxQnjlQST6r51015KGDO2O02WIkl3k42JDGdh8GYEOX4PzzTcDjQcfpS/fJO0UXcuYcIRL/9JgSWCkkAdpnBv1WmetYDvMf3Y8fHJ3xeAOPvH9MysFqU8EbWoEer9lIdoSzxEDITZMyy7u43pRGuQQoLWKIVh8exxBF/UOBkIrLJUTSFlgVXCxqGN7ohRks8blcKBybGqzCZQqdPCPPFD+8zlS0hFBwWDbrB4FgAaNFPGSIMmWIZIXsQBldo49q7rnMlI7ngjiz8VdgGGJZsXMxMYrlKiEJ7hXcOGSNSSxDEckFU5pSNBrO6ZjZGFBlEyIoVjK8c26VDwCive1lDD0x/HF8a4xMaYqM6CV5C8XbQou21Q0RIG+6ckmiw23x/fvoHQI40XJwZJSB4zYzEhGKWsiBdpct7G4D+n51xhZDS96NUx4DOS4Tus0zOeF3AcJsoLTEc0bFVqK30jETHkIyseM4stcBBtEpoGSWMg9scBRXiDuNc6IOnPLGkUwdkibYkLF07NN+27uHAkQ0pC01WAKrRW6aMdcaO5Hyab6qGMhpMhfuNySBd+xq5BsAkA6pZLCbsZEFhTKNsisJVaruiS2yqIJ/PA0RC/S0sWVj52EJJo8iJ+7I8gYO9NZKlSslUo4Ykix70pFiBxlnKd5GYo+Grnz2oARIU3iEoPmxZsg+60xiSSyl4GYwhpTLuQNHLlUP9Mhhb/FuG5A+2tVsroyyLDjNjL3hHysaEIiEglBuIQWOL3XYBr40xSud09Y3b97tKVWaaTGh7aSMvAUtZBWwP2lv3yedZBjxRY8k8sBg+rpg9XIspPLpuDMnHmfhKHHvTJnix1xpIEDY6OIscMH8zyrBSWpfIXuK01cfGgydKaSSZcuYy5UhKQy9riJW4IjCm0I3AEn8c8aDnY5xWSXI7mAqFhkOzF5EAtlJjK/cTYYnyAIIOuukj6iXdNARHh7RjVIS4vbR8zTivbVuFcE+9T4sPJdZMLCeIJAuyVt+5A60Sdm0Dd65YnlTwdW5IVHYyodokkqCRpHL7QR5uvkQ5FGuRXPxxoiT1HKVN7nuZCyyArkjkqSwMkYDDwgCDll9j8nnVb9VMYQ8jyyiHYmwY5vfuNmm/8SgV5ijyTeuOjY7QQrGC003aaOKZVAXIQElYQWNAgemAoUx55vo4KyJBbhIez24djbFjKlQUZ67hYkVQUAgEG9Ah1SCfJKJE0MCyp2+6JgzZCCztEtEyVXxTCzzp/p8+RNj5K5irFkRsixCJx8jwV9x5JJpiaBGpmRkrl44hKTI8DdyaKNVUlN3hJC4jpivtdu0nkfzr0GNcpxQJoWHbaNzJzkSRkc2QRtaxZBv+96KkO0HaEMiiKYKzSl0uMONo2ug8SKYUwN7RpUdIEsUsW2dYkrdHMhaGZ623GxBeOgBXAAsGjWjT5Kwy7GjEePHC8e9lKS7Qb2KVdi7OAG8QN3yRpjpuKIZcUF4oklQ9uHHTsuY6v9xgzhgBRIDg36PsFUZ+pocSeWOMP3nSEMkcaiSREFAkODRXlW28swutJ4nR+5DITIMiHKlvvRHYcdowaYox2DlRYYgg/nVb9RY8xfEMUojjhkESxAtCSaHtmDBhtH21z63c0eJ8cL2oNolxGkk3ps7b3y4Kliq2jG6TaT7Ho2UpkFX+n+pZIMruMY41Tc0xB8X2+aWU+SXUbj60n1fFDJEXuCeeQss0K93yXghivkiqPfbbaKNmuNV+syyMit3Qe2EYHndlsORsEYDqFaj4/IIZa5IpJisvTpCzxySq+zHPve3LGRE4CgXbCqP3An0Qpi/pqPDjXtOZA9FO+waN2I3Fo4y20ir9034YaZxArSRE1BK2QHVZApllVPu7YXxVSDVi+PfJ1zj+HaZ8Yy4sEjjziPeLfcrpdKyGyOF5+dNvFLJ2MgG0ZT9OUA/y+6gpUAEAbbDXf/A1RMy8DGVuqkbbjHfASTa+4hiyTUaK3RAY1z/Gl+gbHx1eBWZ0ByGaVmUl5LVQVUFTG4B9EmgNXv1JBE6n/LtKLLTbY6ikJFbm5tyv/wBpv+dTF6jlLi4h7e4OF7jKSDGoIbaiqBQCkinNce+eUCfR+kQIOw0XZMxInhVOHcekSQ2u3aC2z2P93vVHKl3qB2Rsh/cyAG8VKr4rISNzNVHbzVDn1rrqsM2O0uZHIzqyoIl9JsP3FlPIqyTQLVyNUup46Yiw+X+U3BnADGj9wbfd7bsndd2NUeX3CK9rLMuWe9235YAAcsHPATgX7Pr41uBJAzQ5UfckkkKtIPKIlhaNt9ggADb6rVbpsG7OnlREmgylUFyAF2AcFSeG4v1/fXLOVlaXt3vYwRIzANIR7evTKq+vmgfzqyiAuFhwjtkQMV4JZtxP9z/8fHr41mr8X6ahjARcfuBeN91uPyfu/N6zV4jUuCHjDy0JjGFOTGQdhJC/uJxsBobr3AUb9anYuGHxs1pHIhxkMcXHcQccvGze91/C8cgHT/VJHhWESRqke4h723kSH0REp8w3wN1gm6NaYlg/y5hZnVgAxRLkMUhpgI1Yb2FWaG4e/jjWapDP6K+VDB3ZIxDGAI4QWaJyBwN9DcW9E7RtHoXzq0+dDGDIJI0tkjkRmDfYL2oAxG7mgbvi6Ot9R3CIY4nAyEKuRvUblawoIaqBIIpaIr3qZidPjkQ40jtkSvMzMY5Cr+BsHdvvxqhyPQrUUXBi7DFY4lmxn3P3GcM7vZsSb6HiDxQJpTpHG3thyzwCoxMC6tMO12xZdkNhI/zto+hYs69PAsrUJLO9iPGmeKhyrMQvHFf1bifkc68/0/L2SPjLjJFiGdRFvZlBYeZAVSfkFhZEfFe+NEO/ptI55DlYhjlEKdpZSeWJ8mraB2qv5jO69KYuKZ/qZIpUdsZtojftlVlW7d5WSnLBvILtI9WD6sdQd8VZGxjPLM7U+5bSIEks4TxFLyfm+PenRiKqtjlmDCMvH2RW8P7YCggYN8Bvn4vWVSsnppzIId5jAicSygSOI7IICq6sX44O4Uv8fGk+s9cyMZo1miQy5DJFjcjtDkEs6ByxKn5Vhu44B0zD02U9OiSzGnb8yEKyqyHgvGAxkNDlOQT+QdAxbmEyMgmxVKLO0/cLu59+BRQTTAgKVVQBwfgKP6n7WOnZYFYgm/bErAhyTyH3ABKBtPuPxzpGJJvKbElAylhG8TK5BQnjcJH3I4o0pH/8idU5ehxSrHi5G3JxolJ3vId9oaXewI3H3d1V+vkDgCzSNkxVuWLtIwJYptJ3xqgoMbFhtzA8VY0HPRymwyYcLPjSKAV2pYl3HcSNy8DgkKa5sVon+H7WLq/dml/ZlZKCqVvaRuLFWBq7D3QvgacgwCHaQnYWYGRFoLIABywP2MOeQQTxpOHZPIOopMmzmM0VKFBfEhZbVrJuqI4FkA6BL/DRNLlzLM4QKI3SAxg5NAbi7EEflaXbXwwNgbyiUg/bkjwVCiGFE2vICPtDHa4uzW1T8++eCfRgT4+KkITa8kmM5UyCEAA2CGAVbtVSzweQNK9Vwo8+RpHhn+px2ZEETNtIHs22xI2Ng1YajfloDfpOGJnaZE3syWCHkZogLq0kdl55pk+SR650HqHWNmMJlgjkw1CzRh5Q7L5L57QG2hbY15c8cHg1OnPJk56OrxpDixhJgijzlIvYCUvYoN2rV8c2aX6bml5p2Tsspn2SPABuCiqSQNH5LX9Qb2fY0Bs5H3yrH+7NJAWvhdyUdojAcNYJouKHI1DzXAiwYYI5o4gdkM68yk/a67WVQkh9KzeHs/i63WI2lmxXgfbsmKpKikft7DcYPJcblsqCPX2+OhdZ6E+Vi4vfkRtsu6VkFBa4qI7lCKCB91njgXxoCTxmOFZJccd/slC7ssclAnYJCljdVHwPJ3cC9DxYh07ExopZCpjMlCPkU+4rXHc22atmXkc8aN1aQPlpjIqduUF5TICYZCKRVChwHe/uHo0AdM9VhdFlSLid6UFu2VcqLRVBuqFkJxXvjk6BHNOUpjjiCydxBIjuSpHADtMUBFgVTc8mv505MBKe9EscpjhdFn5Hbf0wBLLuTj4bcpBHzwzDvDZMu0OREsKEXvZ63ESr9lgsKPoAn4OvL5jZbQMiGSCTx/1RHEG2+TrE0bgADnlkb86QUOrYONJFB3RZgKkb02OW4YOrkoxQ8jjkn+2usjEeQGVdmQq20bgLI8m6yIVJIKbaFsWDc8EVp6fL7hcYypI5h2wCV32SA8tz6fb8lTegJizXEgJMiIJX2IiqnoFWXubu5W5QwPr3u+aB4z5Mk8bTTtGFCrPFColCs32gtt3p4myXHHHJ96ylg+ogC7i8o2yFhI+xgCS7WNosEL/O3g+y71WRIFeVPPdTK200ikcvuCnubeWK8/xWlIekHurlYcYjZ6aUFVRZxV77suo5vgcn3oFMjAlmSFvq3jijTazSAJvph4yKwVkYoK3Ub3EiuNF/Vj45gnaRm+mCAUoDEGyu9DZ+35JQkUK0THwZGRxJvneecESDdGpX3QNEoFVdtgKSfnm9Mw4QkY5TKrBZGSNWRQfE0vkQCDuF2bOqhHqrmNUjkORIW2TM0R3BANooFjZX+orXPND2NUOpYkOT3MZmLqXVnK/aAAG2v8biK498jQOjvLHDO+XNC2T3ZNjUD219AE2LC2KAr3+edMSY8yRN9O6mQBTKCPuYn7y/FkgfPoaipUeWVkKTxhMYDtRuKs7iCFNGlFcfB41qdewkboRJKk3lK58QWIBC2SBwdoIBrVaTDWRZcZmPbqpPVWwvxJO4tz7N/wDGucfpsMKlUR5k28hzezb+Ca559c+taRG6h0UCWTf3CxYsTuY/cd38errWaf7SH/zRt/O/3/6a3rXBzhYGyZJpQ8USxnYJCp3EmyVBH7YHAvhjYuq0fME2McnKKNMzAKiReTIPQPkRdcMVsAc/nSXR+sxTOjdnfArnsZKKpCt72sl/t8f1naDxdcWXHnaSbFbIoKm8tKswa6uhIBUYAu/66NfydYpFLFx7A3q24x9wTh+GJuwHBtNv+3cRX551POVFkH6FpZRIIhJkSRbkY1RHKbrZj7F/nRh1uEwSGL9yHndJCVMY5Jv7w6n0CR+bA1zifqVI5YkZUGRkqP2Y0Lsi+g0jgAbf5YWPj51FLdRIlyEjywqwkEoyzlEJFbe8g2nuHivJq2+hpubO7KyZGbFsZAy71Tcrj7k2kFiaHpiF5J51odSR8meHcqxY20SQdsFpG9hrDfYb+V9j3ofW5EOS4myisZjv6RiB8gMwcXu9gbD+dATK6Y+TjwmdXLSx+SA9t5SeVEiBigVB7LF/7fBd6Bj9uKKAdowgbZELBgtXdGvMEn1S1+Bqfm9cxKRI5I4ArL2VcvChHwQBt3eQ+27rT3V+uRKiq9tKXVdkIaw9ivIfb8cvtU/NDUC/Roz9XP2Jim8k/SyxqqlVCpvVfvrdXl6Njj1reW/c2l1LYcjbDCqSK0Uqk/uFhThLWvtHtToGX13DjyHdp1ErII5Y5GYMKF0qr4kcmyCwvj+x069iIwim375gXVCXkc3xtUC3B28lSRVmuLoD4ELrjGOaQTOPAyRRsGUEc/JJNVbbrrk/Olh0Xsx44XKmEOMO4YkRXWVQbBBCWWH/APZjwffOiP1iNZhC6dtYOTKhRFQG6URh2Z7A2kFR+a0Lr36ix8Je4zL3EjLrDHYuNiAP6f2/V++aOsjXU+mxSyRduGMRzW7Tuhdoy1Wu1lKq7WPv9c8HQeoRQgx4Wy4Y9tQshs+RHdDhghu62NQ5HHIGm8LIhaUiaWOWLJAkihMZB9E75AWKkbQPI7T4+ia0p1Pq4ljPaxVyIwQI0G3b7uOWIllBHAsCmBHB+daFnJxCcgbmWOGOFggo1bbfKQUI127aA98mvnSa9JrHixmxg0bP+52W7alx5bmBNvGTySd98WK1uPrlt2JI++6x/vrGGIF/0bWuMkAi7kLV/fQP8ajwxhqpAjZmRYQVQqK42qxLGjXsgUfQ41kVJ8VEMhYvOyv3QoAsMtABOAaAFfd8n41O6kZYu7kzApHIFHahjXuq1jzLKx3KeBV+q0h1bMhkl7UsIEJJH1GM5Von5DCRh5MTYFLuAN3fx3/+OMf6Zt8+w9wwL21aTtMv2sxamYGg1lQOa/uFvMgkd4Fj/bSNi28AlWTaRwQPvBItWoHn3rPrC0s0E8V4yRjvSyFdrWONoB9EA7lI+R8HUT9T/qCLFPbZ1jZ4jIOxw0jWoI5pUZvgUxNexWrHVOuxxmFaZpJlqOJjwWPFPQNEWPxfNXWgB0+GKT99I2ON/wCG0ZXXkf6SVYjPB3Db6uub0tmxv34mQxkdr9iRwO4WBJMZYnuFitgAccMTfokx5opkihl3HJKdyGLed6BaDHco3BNxrazMWFXfIG4eoRSNvkkhXIxaEzNHsNiixQk2yleB5GvZBPABzGcJuhRgJ2iMrqxU09DlmUAqeR/TVD1+VjHOpxGWNcdWUiZhIzdrgniMgRHcaG4i+fWpv6pyooo2zccNKHmEjsAGJQAI4jbcrxkKP6T/AMcnVTqPUsZJw4O9pId00S+bGL/cQFNgXXBF/k1WqOesZ0owJciONu+P2wSGVmUNt3BTZQnkji/X8acy8sRK8WOryZEaKUiU/wC75JJG7kWdxJ/70h1zqkEWNJlsbQqEjMLW8qGhts7Wv3xZ2+7+NHfrMKfTEzDHMvEKvwLIHjIoa2ceg11ZH8XB06zbIkAjaZWtpGWwxe93b2lmjIv8beKv51zkxxTu4ZiUi2hppOAjqRwrAgk3V1S/m/Wi/wCJxlw0QMqLK0TMBRhIHkRxZUng7fzqV0vqUZKkIxZ8lo4AEKCNVsu1MSPQZi7UTdDWhVzmZpt0YLPsZBMtVHQslmsqCTRHifnnTEkhLwMoAEq0HLH8BuVPtuOOPQPI+fPfrL9QAPBiwSwoXre7gsNv4UAUzX6UkE8VfOr+b1QIjsqmaSGO2SwGBYcArdBmrQIx9HaV13tE8ayuWQRgoBZI9m+5uqz6uzXrRVIeXs7pZC9u7nhUAJ2qaIIN0OAQQOdc4H6iieWLHUg5Eq/uIvKRADcysSKujVf+2tT58BmcPklRz2l3CNAVNMAx8XIIuqNc6oaxMdZACFDFiRJLxtBQ8bVs0SfX9v7a3jQJuba26Qm27hJPIpTz/TweOB715zJ6xDjnLtFMYKvEm6t0o5NCr8rU7h751WwOvRywjJ/bAdSXHO7YoPB4uw3Fever1NOYWYsiBo41KWQCUAvaStj+DXH8VrWvOT/rLDxj2QuQoQABVQqBwDwPgc+tZoa8fjz3AZp5YzKARBDJ3L2E8GQRePA9Ege/LU9Yzj9LjXYWkmDSSbgdiRK3kgrm34F0TyfIca9D1GOsfHOLkBIMkbZskkd4r6UNyGoC1snxvXc+aVDyuzmDFkEUUTziMsRQ3vv+8WRRAHHPPvQL4+ahOVPhb5sYxDvRRRqVQgWCwZl+0D2LJ5sGhoH+Eyo+PNkZsi5k5oZMKeCrXjEQSi+R9DYedCxeuZuyTHMbrkyPsTJ7ymNELXwQaO1fXJvR+l5ox2m75jeaLwiyIy5WRmA3dwAsQeB5Uq/zqK0O7CVyoUmmyoBJ9SUQKxWzSTBWpDtO4EKx4+BzrUqwyY0eVHkCISg9+ZY0doVNHtdwkEtuI8mIb/21IOBIOn39QyETu0uMhtVINjadrEkWG5dgRdWdUOoY53wI+SZp82hMEWo2iAJVeUDqTzyCD91kcaAOEMpckRZ2SAMhh2Wkx45VlPBUr3AAgqltL5P55NvA6TlP9XjrK8I7hkZEiDtKreJJLbWVfFgrqT/FVWvPdT640cfax233+wilTthdSCojJAYigRblhY/GvSZ7MFiR8d0XIRVdYz7kPveS9hDxew3XrnUET9RYsKxJjiOMRM/bx8tlEa45UncjsL3MKY7ixYm7r3pzo8KnIzpkyWZIgkK5Vd1mYgAMkrSFlNmtqtzwP41K/Vme+PE3+WCZFCJmQsYO0L+zc+/cbAJYf2Pzq9nTY5TDlniMsUaKDIQwILgEGRUKghT/ALQdBN6f0SJcv6Xc02VO26WZsdXdUo7t4MhMRJIYSLyb/trv9Uo0i7e6sUZQqjTN+5OVsKCWJZor8vuYHjxOl+gySwu8v0xVpP8ARlh5WSNyfFxI+8J8gqA/86q9rEzMjHkRVEvb306yhlCH8Kdhpv7/APOgtdRl7gAZ4yCY42LQREK6itgUki3JChTW2xV3WoMkwx2xYp3RAs32SpHH2BVnsysLZQdvI2gUF4uhmFl4+TDl4hUTz47NkLIqsDKb5DAbKcHihS1VfOp3VMJ5XxJJFnE0cn7k7QrSKBe1lBKkr7sIbB9nQGl6hJ2XeJmnx48jl/BlLsd3emqwVS1rcSCRdrxV7q2950kw5lleIBC0UUUil3+6QlW/bO3jcQdov2DRnduUYx7Yjk75BSTskWtlgkK1TtQv9zb7+4gcK/pxJA8cS9iSabcFkhRyzBWtu4jKkYTgozKCw9AXzoG58GCbqzRqskGPGAzTI4RI56JJZlpe4bAsndpJ+nTSqJZI0CSO0ZkSVIxk7WJXu0Kp1G7uEvY5ohtC/TuJFkPluMWRIkViIIkaTvObRyDIwJ2cEcr79D1ovWnKYkDHtKkQRIY3jKztIhFB4x4UymidzeJBA51B30nIkmNMkGPip3JEDY8RiZFIEixznYjbj8hf+6vVzLwzvxYMOFosRF+pZAiB6sAFZA1rIw3BT9xF0eNITTrLHC0KrHgorESwQiYRvRZo6ksVYvdt5+dup8XVUEMyNkRuMiNBEu2TmQNS7DYIS/uVfFSKCnm6OMqdHlOf2MgFWLF0n7rxMopVkbbcB/3A3wOb1Sx8WMYyZrGfLllZj36G80WAijG5jE287fD2LFfguH0WX6RcJTsyRKZs1XhB3qbB27QRtb+mtp4P2kHSsMXcmWXAmSPHiIE2OYWftr82Cr1IaINFSPz86gq/qBchYYppcvsTPExYMqbEB/o3F1Al5rd7NHxFVrz/AOiYzJEk2DGfqoEMUzKVjDKbtt+2pHYBfE2V4N+rf6WuHmo8yxhJcl5Io41V5VFDhzuNK1Aml45Hs+kFyXhh+nxQUxZHKpL2L8iCHhYks9bgSGFtu4sAaof/AE6mybd9VLLPGTCHnFqzOPQRpLd05sK1kfgaF07BVMgQTwCRzYEKojKqCyzheRCzkhub9BbYkEZOMZkWQKzrShhBGe45RbIfyVYZFIJbtsCa5JHGmxsyJY4o5BBMYSMWTtEiRa8k3uSzmgpLMpYc0fkgx03LdhlY88L/AE0wc4kclIVCLTKysv7SkeQLACyfzqP0zpkeSZZIsnIaFwIAA4LxhTxT7rCejtCgURzWhTs6zQtkZK7lNdiWERszo9MimNbYH+m28rAYDnVjrGUIclS7JGHRy6PCE7Xc5VXKWPZVdwLNYFcE6sD2ZlvJHMyzE40UW2sUjuROtbdwQsW3cncAor4+deX6F1aVI2AdYUznYb5SD9oC91Tah2J42eyebNVql+mf05PCJI8lVTGkpWijDlpd1U4c1JQ/BYfPH54OE00kGLtKKsbx7FhBGxPTlj5K3NHaQdw+RzoVTxZ2Rp8dXkllQR5DRv8AfI3ANfKilHjRIvUeLGgfKxEYLtt3PaoTB5LKhogC6ItkMTwbs1oj/qCSNayIjFHFUCJyWk3eneQHuA+uA3yfeuMXoommky2cy5MRQuIQU2+VgAHZYCjbz7vVRz1eGQux2dyeQrGTjSCPtmxYZV3E2AG5I4v++lMOCZ8vKieRw8sn0+5PBaRC/MdmwQeBfyTr0EYady+MqRy7Fym7qkKHJKqVryL0NpB8fxrc3VFWVp220Wj7kSLYglalLysLJYDgKhI/I+dUM/pz9Nn6aLvSS9yvKpj+T/1x8fHrWab6VMpiUxpHMnIEjCQF6JFnxHJrW9XUeOmljOQmGkb9tEDwRQoHPyWEhkIPmK4s1x6OmeiYEc4BlRJCHZziMoaaKiQGHtpATxtZgtV+K0HrGZksLhd55I+e5FIAHEbVwBe8sCQQDYOu482dMg5UUDGfKT/TjnjePxoKJABujoHkswF2LHrWapXpGZvb6HfKiGZlMBjHd2hd9qN26L8ALYr1XrS0uDmYrLjpJGuxt5VQCWjs/wCuoK7RtNlWJDH5HvVOBYEkizsiSDvmI0o7rRJITyHKb2DUaB3UaP8AGhy9RXM70LQjvzMF7kIbzWhwncYUwA53BRQNWdRVXOzHjXMlwSmM5VFliybjLGgoeBCymOuQD5BiAB65kZM8gjxcaSVo8lmURyTqxacOQCQ5IEVWVKMWJFfnmpgTDKxskxQRw5OEPp3Zh3GMae2AYMC9K3u+f6vnUPKfpsUMDyNJNkqy7F3O8hBFgOryBEJPB2XXxqC5+q8NVM6w5GNjlF7EULSpujNAsYm7iiPduFpts0PzxvD7CYhiDdjJSVAY1lEMU11ttGJBRxwfyQfLU+KASEZU8mPjwBtuRF2lkMZK8bneOxITVi6quTen/wBRQwyxxTPKuOsnrfAu8IBwTZ8a4YMDxwARekHeEJO5kSZCtjRyEgRSydyJyLW3QBdsYCigxAN2G0DsMj4mOsv7kkrsuXFIC+07m7Kgbm7Xq2vaK+DVHxMo5OL2ZJdyPEwM8sQEoBJCPsUFe2eAH32fxekf05kzEmJoXiWFDEJki7skD+y7b1BUODd7jxXAvQcdOSLGzO5jskoMlXK4LLdhhDJwCQxNwqGYjjj3pvquM4zVhm2zNHGzgTv/AJWQUPBFY1G/8s7V+DYpTr2R/hyKyBDI4Uu3bBCqSSZgh8EeQ+IoAX88a6/UfTZ5JA7TJ+8C6LPGKZTsuMoQyo10A6gtdfJ0DnQ+m4oh70SImS1t2hkr+zRPCFR4hvlffJ1F7OTIryyZQkn7oT6Z8gCPafutSQShVhQ3/wAeXrR/1HkmSSB8MTYsccQMqpjhpL9SA8gvItr4sfRLWD730/rMGQCyxvPkQgyHIWNI7QCxvjQlWKt4hWscXYPGg7USLlyzQ9vFWEJHkxIzSd8cEkKm59hugwHHN+jpXpUn12Si5jvDjROTEUkfulpSdgJtq2jgnalCrP5e/SHU5MzImkx6xyihsmecKS6H7kB2/tgCytNVAcDVKPMTHxO9ul299hG1CRnjZqsMxuU1yrWSPiwOQ8n1HpGKpyBOSZhkbe9FISzg8GzsfafkswVT5beNeij6pN3sh5Z43/bQSRwO4YIpoSg8hjtPkqgtwDQuiLHxxAZBH3kjnKRnKmHfjbfXbcBm2kckb93ia4a+OP1BiSY0naVMmeftcvCmwyAEFj3EBdE/+0WDwvG0aBgdISON5oJyzuTKss2R/rbQAUcBE8Kqx4m6ptKY2HDBhpHlsqDIKzQNucwqST+0Yv8AUCFfE3dgkbgdVHzXlmx2n2yNRhXpqGgNwHMhv9zaOWVogFv+LPHU5XaaHEZYp5mDUk2yM0tUVAR2jkvdW30Fu/wA+vdUhdYjLhj6iMKuODKWRmJqo2jLBVXaGpypAAuq1Qz1fFkE0k4yWL7DIHf9uMgFlpL53AEsBR9UDqR1WDYZE7xTFxJYx++2yQtIe4+2Q290aBuz5DgHmzhQSDGyZZY8lmlkZEj7RTxJFMygEQgeyVux5GyaBEHoHUUzTJBkLvdZgY/3HaFVQ8EcNtQge2fy9KRp3NlfImy2V44JolVFbvgjJBstEQTYRq8RYPPs6X6BkJib5IkdpCm2aTHQSQFSaREO5V3k8CkHkTfvnjq2W0DuMh2UyptRExIu6JQfF1UgbwB4h9wINcD3oopaXNyMMwJBhrjRb1Vn3NGRwyMqurRoVNeSj17+NOfqDq8SSHLRGZEDLFIckbe4p8o1HJG48GzyF4r3pDqXTpYcabI39vMMKNL2wX7kQrmXco7ZO0g7Qb+SbNMZs4bFMhx3iw5FZsuMxAlZAvDIpYLGrHkOpUkkWBZIAUvT4GxsGRcSGZ8xu86Mx8LUd3t/7FBAJ3FuTXJI130fLhnLY4btLReDBVw6uRyWlI+CfcVqQLJ/iflLlHEjnil5WFZFCRAPtsMB262JH8uyEl/RDADVfBdMjDedjHuFs7QR9uaMmmCnZtI8bBpuRV3eg46PgRZrpNnKfqCS4JsQx7W2qiMQVNnnYHJPJ9a7jye1TIpiw5JiHMMn7sj2AhIAJIaza1dUbrQ3ycebGhyo4pFUsECSbgprkeKOwBJ4VwN1+yATo2cz5X1CiBo8cIKtUUrNwUKlGPldDk7daQn07HxmzssRiLZjVKO2vajd93EcjElSVYAg8eV0PE6Z/T/Wzl5+zKh2TfuKZValO37Yjx+6y3uoEfnbpE9SPa+q/wALJkQU0iP4GVDQtRJbAHn7Cb9A6o9PR8EvlwumVj5TL3pm+5T5btiKoHviqu6/GopfPjnGPLzkSlVViTugl8LpthtjHR98Cwffw70ftohwXb95FE08gPaXkjbuIvdIRVk+61ITKjwICwaWsk/vBnUyIDfbQF7Bj2k7ttsL96odUj3Mbxym9o4sZ4XAQILZiWa+TRUr74UCjzrSA4ef1EqdmLIVDuBtlKjhmHA2cCxreh5H6pzEd1SCGVQxAdrUnk+1vgj1/wAazTQ+2C3dhnaNF7EYJKtzIW9rGgbabJN9wCjVfkJxLkxtUMS40TEo3bjSSUKLK774O6+SHatUunZiRlkDGJ4IwY2kXmfcNzUJCpZhW0MTfJ/nS80MXaxckM0HkVAjko7WBLdx64G8WSA10P8AiCPLFC8Oa0IMVMH7Tv2Qm0AbnVNynkWoN/HqtPy32+ny4j50mPK+3IkO/dXBUsSCSim+SSKsXzrfUcJVjnnlJRJ9oWHGHExNAMWok8GiAFPF3+Ouv9MuJkd+zE4tIUIhBY/aJBJuKsT6IZd341BkfS4kmyUZDHNEA/1WLSu+8khRGAzEkDnk3V1pTqmBOcDqEk37kmRt2KCeET0zLZO9hQK8G/jTmH0Bnx5mgi7EisAzzNuaVgKpGDBFXadoYjm7986aXpMbopjt4EKjtoXZYWQeW9gxabyItVLciq96KHnfpWFsQQwyzLjy7ZDAsiKA3BJKtGXHIFix/Op/V8xxN2xCZRHKJJpEmDvBtReYwoLICBzuDFvIDkirIiZu47TRT7lILio+0fSgUFUUx5SQ7/76W6f0vv4riSaQZBdVEsKKi5G26EbbVEgqw1+Jo/FHQT8mdYY4zjPvx37haKadIlaR6PmkoRylEnapB596HhzF4J3mEuU0bVJjqSiQq32MEK9xgBxwzcaYSsmbPxI0VZ7TcVXujYtK5AZWCNzyFUc+rOnpsJlmiUZHZimT92c9tWyCBxHtqoyAKshOePeoFccxOMfOlJmj7e1JlZv2ShJYsaoccbCNxs+/jf6fdMWTNzpZfqYshf2QjACqvzJoK1UoDENwRRJ10yY0QaCJJVgBaTIxmYozhwQNgkYA0Rz2zXqr1PMGPHgRTsScaSdUfH3siIVat/HmWoWU5Uk3Vi9AObpyuJMna0GRPtj7LsVMcDfcxZ7G9v8A/II8eCdV/wBR5pEccgMcTmE1jyFnXbwNxaIncSL+1+Ls+r1R61iTSZ0ySSyiNkAihMULLMovxVmBqxuBLFT6/jS/VVE7mCRkgG1ViKOpKkcduQgAgE+JEZcc81xbRL6fjNHgrir4iVO6kIdNw5tjC5BXY18LKxb/AKOu+igL38hoE3iMAxQyeCrbANI7vssnkrG+71Y51Uz8eTJ4dDEY1cAwSbJEdABSqu3dEfYZmF8Wq6l5uMkRhxprmgZamGNaNIzm1eVQEQbWBBcsd3zoN5DB4oQ+zHyJkRpJSWeKURHcBEVdghWzZcVz/V8Twx5khMQeaVTG+XvLs1V/4SI44yDQEgUmz81r1XW+nK0c+Ms4AiUKxRI1EIk+dpoBKBBKWT+NRP1BBi5OFbCYRxsMfah83oUkhBYd5d1FbLULr50CuP8ApyBshcJsefHLfvqXlFB6+2KRCy0wDX3CWr1R03mZ8iLGP24pZEMEdOY+woIMnMxqQbR9677I8eDpzqsD5HTseORWyZJv290SxFV2WBW8oFPFbhVG6Pq8+lSUVKUlCkRTMaaPHjoDtedMCTVyRqW5FtQB1BH6ws2TOYsN2URqJEfuJ2xFVFtrDuGQncKJoiyB6OpXQg2FCqyiObDzv/zETMUkjqwLLOoXmvJgAfXyNezxsKJYZJ8V9pWfYWsSb0QU6w9wncqgE8gGw+34JFk9Gh3KsShpHQdtSSwlivcVJm/8v9VNRA9GrGgTnnmWaPCwcZAQgMLzZFq8a+yoVwS5sGr9An1zomRHFCXlxZ3kVFf6ynuRq+xWTbvCoTwwHock+9cZvRoTFH3Wk7aQlI5YkdmhkQ+pDGCVbmhXief4t7orwiPHRlEMCR3PJI0ezIYgkgsWMrkMDaAiiQGFUNNC+F1EsWmx1SdciNDJGk6oQykK0vbNyAkVQP27ebvUSJRFFDj45YNJkCfed0KzKHBCq7+Mj+grKTYoga9DidJxlaVzMkWFkIO2IyENCj3tz+W0CgQDt55HvWSdNSKCCWaAGGOXbEqy7kKuw2yKbMhZgaCBq54X1qjnq/UUhkGRi4zS5kzsKBJVGVQpUsAQ+07vRFW2uYZUXL7sXmzKRkDdbxFqsJGBuDuQbB5O3+NayEMkeQZJI0VJCQjMElVhTCRjYVAoK+DJZAF2TzmBiDHmXJyZuJg8eQJqVZXUAK60BtjIF7rIH/N6qEsHHaAZWNvkgVJu4XEvmkRH+rt2gsD9rcgfzxRLEkOLmSQRTn6fcjfStKV7kjkG0X+oVQMdAGxeneuQ9PklmWRVTICBo253qsflZN+QJHC0LAPP4p7JHyYTkiJkR7sWilyoZGCEt5A2N2//AIGglZmez4+W0EW3tZQ3xG8ftUFpyE37hfk35F/iiTBwpJZBiTGPtvEcplgtDvtdr8bdvP8ASPfJOjYkTPknJMhSVGYl/cKcFKIZk32ovevz8DU/H+nizDNkI2O6KwWQE1kNIa3LQ4NDgKWpSASK0AervLkQTzRiMwxERCQxqXY+pFhWitk8W1Uf+9ZldTjgTAiWOXtEbkWYC4it/uOF87JNnd4i/g69D0ONw0LScJkIXMaKdiN+QK8CfuLcG7/OoP6lgx5Z5XkjlJVO1LLEGuKPnzb/AHhuR81WqPm+R1DKV3FNId7EuqMQxJJJHHqzrNfZuhYDRQRxwDCmiUeMjMbbkkk1Yu79f+nrWaivIdG6oGysuV2ORkopjjgljBLKCNzBSoRSoFUNoNc3YOq+KiBMIs+1nYPG7E2aLGhjj9oCvRBBHBqxrjE6s0ommjdfrI0a8gRKkQW78m/1D6+V+PWov6rxJlxIIcZJchWbus9lwwYckD2tObB+Peqj02HkxzNvmjhfGUm5f9azZFNMwXbyR401er1qLDkMX08btjY3caSVnAYRncCFifxUEn+khqv18aU6fgoESB224sUYmQROJJJ3HJZaHpSAaCnmuRrOkdUfLx5pYj3J4mall4kkA232xSqRwQbUn3yDWsq7Oc83TsjswGMI7RHvTKjKx9EhgBzY4PPPGkOiSPiYmJgySmLJnmLR7V8l5ohwwYEEnhgAK/tekv1PC75ESRCNGpJmiVwWR9w3L5HsuxPIDlqo1XzX67MZZ5MiZIY0jjWL99mWSMnnuKYAwNmh4txX9POgolkkDxntwyQle/uUiOcrfCxk972QdwHJqi2kP07lyZF5BLjHgDUvig7hJDRxrxSkcW4Di/uHlqf+qcwSRxbjNG7KWhyWWLuSDgKiFGP+77n2t6vm9U+qzwY+NjxSSHHUKWMErMjvIST3JJYy7AE2bVm98j4ALfo3McSv9AncdS5nxpbTtBubEzJuY3xTSNfvirDH6YAkwzPkSJ3Xf1IsZ8Q4FqFsbT9rMw3XZscHSuTnI8eJiuZseOclncKrLOq+17ofuspBPLqGI96c/wALlsGRFBUuipGg2/S8jaFoK7MaamA4+bFEFcOeKZsmRIQ2TFZSaa9sNCgY94JeL37trvgitKpgPGy5CtjfT7C0sDNK6rfkxVXUsS443USt0ANP9Sw9uOkOU5kBG3F7Kbl7ardyqxVXK1fO4r7HOuOs9Klkiw2gQtDSmSZRulej94B/oCjxbfY3UAPkLmVltPPPDbd0Ir48bAK4G0EhGBAK+73kWb+K15noDOYe+uMr5uJOzPJO+0FmtXRFjLLx+SqjgEWedM5n6lOHmNljuywZaKkaOxsAV5qSW8QLPxySK+dL9F6K4/xSLHlOSk9KJ41D3vUk7+Rtq+aJuxwNBQxUjypcqTvLH4A5GTGzqd68mGM8Ns28HhfigT6mZPVSuQ31GRGkWRsFNvDKgvZe1SCnBNFju3U49gNSsMeCG8SNtqmpHCgI0Z4LvsJjK2aQBgD8j3p7pmPIN0M8k6NkEBBIpaNl27hsex23JLXQPx7q9EL9Zx1cZYypFYAbscrvR9tfZIFChh72gsw5PrSfXc+NJsXvw9qB2TuUpE0a1S7a4RCQCey98HizpH9ZI7Yn1BgMiB2jlSdA0kO3xO2U2VUkXVD3ervUuswLFDKhGTkY+IlbNr7Ca+0EeANcyDmq4Oil8/JmSKNosxEikcxY6wxxlRuLEPJvTfR4Y1fPwdbhyklDL+yuSyNC0J3rFkGuJEYKGQ8Hy8fXFijoOKuLLjJkNGca5O3LI6rvjIv/AE5AN3LHZdrVmvwd9JwjMfopRMxdGdZ5XO6NVIpU5JdN32uxVhZ8RfJC+CGdIYdixwwOheHyDSXSmRZNxuOzyEfeR7BujX6NmwHKG2RQuOWDvIGQsCFAI3+qrbZonmr96nt1RX7WWZZY0xJOwsUsSLGCRt8yrMSgI5YgkccaNLlCKbJjYKuZkRX2ZtrwzEHwMbtbg1ztZUX+B70UYZyyRB4HaTblH9+EhB5DlWWQBGajQO0i65B0To+Pj7Zo4IwWxWEjPkI7bma2cAIVHco1tA+RSn5BB1yLFK4sqBC6KJDsG1pKJLFE8URTSl0Fn3VC9bx8BsnOy+zMofHj3BGZkTuWGSQdviRRzfcJPwRWoGOkyEyROl/SqGdomG4WSTSqalib3W87T8L+AYeKrZIt4EMeVv8AoWNu1r4tv7hUgKd/itDaR8HT2F1l3h3ZMKnIVjHM0SEUOAJWQgMwN3aqyjm6o1D/AFFM+I2GESON0PahyXNs+7gyhgTDRBrzWxfoDVDTxd6op1Yb52YvKQI5UDdw9mEndICABYY8eVkcapLmx48kxWJx0tYj2Ci2hLcsQRwI+fu9DnUjrfV5MaOGCyWhkIdHQqmRG5UPIZGUKFtiPBlAv1QrTXV8jHyWyIldZo8dEZERu2mIVHvvG0ZT/A/I0HfT+npLHkvBIcqUgB5UcJCG9rTLvO6MV5VYFer1rEVMvtRZMUhWCb90IoaB22nydjtLbrB+w88cg3qj0lBNJgyxPHOvn38oC6J+2JQG8T50AdxA/J0p07FgghEcM7JHPmFlA8Zdy+42a7U7lsmiQOK1UYcN+wMal/12qSUB4okjY0FRrCnZwqqtf20PrMkZSH6lO7atHiwqbDueAXqhGCACACFAJsXWuOuZySYrSwTCPuSsqGQFz3PtejyVCgXuHOkegwiSB3mwnTGUeLRy7mDA7XksssoIIsKBzRPsjVFQFzAY1mLDHj/zM17QHW/FgaagPQWieLPOg4WVWZNygTKh+oDfcEEVBbo/Nkn/AK0pjZT5bxQhWnjRmaZ3PZdgvio2DZvYABiHU/8AtrMdu1iz40kn+XifYkqFQ8m8l3jawQKBANAV/GqI0ORCFHE4P9Xnt8v6jtri2s1/Os16HL6/mxNsZInYAW3aLXYB971v37oazVRJ6nHiy5uRPNM2FkxFVjCsNxHvuP6oEGjyf767/WuRHmyRSwqsseKd0iREFmRqO7i7BI5AHq+dU5f0+cmWdsuJIpJYy8JT2K9GV6Hs1S8gDcL1M/TOKsWLPn4y48ju6xSBl7axrah1VN3s3d7ufdcayp7Fy8Uy4+GxjeOVu5EcW1jQV/ptTM3u2NMP5ocGWFbGaSWIxNEiS23sJ5eJR0HDUaC3Z/q+Dp+fBXF6jhzRT1hyjtAhBIvJ+wOEI8m+SbFHkaa6h0eFMhhLGsaB7KxSEwMPjvRBy+8e7CbfVmvQH63EsMGJk7VEzOGZXVRLIWFWQo7fcsgg2B/Is6k/qCX65OoTLPPAMeLb2A7B75Lb0Vu3tb1e4/NgaZzY5JIjlGbts0dQiYs0SMhPKjy8qFhtt1zweNN9AdIYoYsjzy8rcxa+MoEkbXJFuoVrAYej8agQg6vj5scCZTwrEsJZoroREcBt2zmT1a0AAbDHVSeOeGJdsT5EspuImYmRVAB2xylGaRGq9rBfnWZGXmxyRESFJ55DuxpmpUjTggMoNE8EEKRyf764w1PeLYEizSMryd/uK01XQj5X/RU8Hk3XoHnQLfqDIymjx5oWyEjBKzQSRB2JuhaBlWQE8ckcf9adyMOLHjiw1xxK0v8AmciIqHUt/UEDGoz8gbSOK4uwt0/qTRymDdJmhQWlkRP3YCx5JotbWaApaH5rSf6b/S0RbJWRy8nd7sWZDTdshgdplIKiVvlK40oHjs0eM8RXJGLFKGRnAi7PcuiYqIaNN1k71H8CtGzMPHxMmF8d/qGgUIbCP9oLMY1FFpR8+toJ93rJeqZOVOckAGLA3GSeOVArigV3UpDuFvcqlbv2vGj9bjgikjmiVWxpWDxF0MqrK1MAka7Widzz3GZhYPGoJGXiHMhXIix1yY8iQo3iFMBJJZQ3n27J3FypFn1r0XXepmX6ZsP6iYwERZUUBth2xao528+djcBR5091tpYWyJcwD6QzxuphIs7QOZN17uQF2qATxXvhFZInyZ+nLFsEis20UqxbwSGCGmZj/UVah+F5sEui4hBfIEYx1lyGLydrZLEHoBHDNZjY1frdZI20NT5sNU6iyYizCdgS64xUK0ZI2uW2tQs23BJ+K0SGeTDkTGxIO7jzm5Vg+52i4d4hZKLYFltwPwdWc8o8kkiRnIEfAyI7bslhQXtodzlSPIA8XzWgn9DdsCfKxwmTmOyKqzxxkKjAEVdsCBuvf8c8aBn/AFEMz5DojZET+UijupBHsNedoQxJtgav+NddZkjwwsuIXSc7IpVWmYolM5C0SfuFkA1/GiPEMR26h3iTOoIXJUOsoI8CxUR9ggeILkg3/wAaA/6Tz4SmXIndlwSFbIlkXbLLJXI3bl/bHA2G/uq64LOHkfUzl4kMwijSTHalQQBr+9tz2+29tJx/zepPT+jRQYzZodI8gJujyNy9lTyO3AS1FqJXfbC74426e/TOT3cWfMiBUd0PI0JEsxjIBdHC0Q1i7r1/T86KEyS5EaTCEzY0Mu+NZqSR7B3sE2usrGyRIWTn4+SXA6t3ZFx5ZFyZIktl7avJvLXGA7mpDFyTuCUaPOkOgZCy42VIrOpUsuGInD7dxJ29sAUXFbvI7txrbqv+nY1x+noEjaHJ275V/wBFpAh5LUGJVbr+RQPvRCnRelGTNkykzWmEKSI1ne0IIoBg5o87/EWONF6FNAcOWKRIO8AbKLsDqQSgcKg2uFF+NgUPK+NC6NmGdY8mKKZGjUoCD/l9t+dbQTQ5ItKPqx70brGLBEMlpcphiywr23UOrF6pjagUlBaQHabNj80I9A6xJIzdQiWSVki+nCbWdlY0eQts6LZLF7q/G9BTKliy4ceMDMhVkKu6X2jNy8ewAbU+bI8QKsetOtN9EJsycg5EyLGqwB4yUP2HwABlYgXZAHoMfleOfflM4a54oRNM2KSHLryI3QkI5q18Qx5PIuyFB3P1SntRZOQpaMSJvMeMQSadd327T7qrHsVqXn5uFPlEOsJBkKRuwdEcqPLuPYjZFYk7RRtRzzqn1jMZZpDPHHDhFl7r44tzuHCybLbaXsEKN4JHoGythvLBjQkxrIJC7xDHCl40PCLHYNFgCSZAx4I4PoOv11lBGVZu7NGtMsaVtnN2N9KdiLYA+SPk6LnCPNiJx3kWLC2yN21B5VQe3E24bQOeKPOjdT6ecvHDSRXJOomxq/aEGzaNrsQ3mSQDwLPAA011CFlxJsV97UBJI22kIJG+NeTRI4+bJJ4HGqhboOVGsEGMxV5QZJFiR9zuZLdGR3CAbQxs8c+j+RjAlmhVMj9rJv8Ad+nkp2JO0NL6Q0ACFtv413Pgtlo8ZViqW8ZkLRmNlIIXfGWL8EEeqofOlOk57Td9sd2haadLE0XNhfE8/cDto0SeBq4DpnIoRO7/AEiLY5QSrIfAOZPQZq9sT8aQ6nkNRZFVJsPb9QkqkM43cKH4Ri6/IB0bAwVycrP7JudYAm9wApkDEFyAK4IBFV83qlP1DFXGCY5M0MTg5EwHcYOBYkZOC3kB69cfjTQt/iGKfJvqwW8iB6G7mh/a61moeZ+jppnaUkvvO7d3Atg8g1fHHxrNUV8XJZZTmsGaXthEyWHHlzsESmiB+Sw96VefIx8xJ5o3kgdOTKQkcTn+pmJII5I+PdaJ06f6VRC7KitukSBnaON+LJRgrMR8lHUDn5rSEGL/AIhkomRjdpXjeR5FSgp52W9+SV7BANgayp/quMq4QeLvmBphO0qBFjDgg70RwziLfzwTfwSNO5bJizy5jSIcqVNkqwx9xCtUrigTGTxe9gDXPGhnNVMJFyJHPYYRRuV7sGUSOANig7eK9iiOWPNoR9JlxpJZVyFx8kxecLdpldWsqE4ugRQDEtx70HfUcAtJPhSvKwVO9Evjudm9dtQwjRUr7Qy2fj5JcPMCYy/4jMxkFpEKDZEYvasw5JU88kE/HOj9H6TNE2KZshlz0VgxlUSlUPrb/SF/kkNXH8aD0frE2LmOmTkRzQx+bs0bGXc9+CN8IDz7oCq/gHsCU482F3FWRDKYIDE5BW/bOtVIxqy3jX8+9d5eErZMCozlsZ5JUWOpGBB2nctglSTuNHmyP51M/WGXPFOcOPHdIchw6pHNbTk/cAxA2E/I5HH88O/QwYWNDMF4l/ZfHaQsFZzwJXqyqHggr7OoEHyZuVykEnfbuY8pf6cqVO/YwbuUtiwvJ4/5HOHPActJAs+bHK/aM7AOuPIfJRGVSnYNzvB4H9jrnBnTGPUlj2jHjVRNLDGAyye62Wd2PZIqwQL5+dd5kSjEw5YPp8STLIRgqlURm4Dom7wYpY3W3wK5vQHz8EyQ5UWdMpnjkXdOgJJVa2ieFW4iPJ32ALvirL3XWWXp8DiVIYdvY7ccsZisnbuST0QoDUnv4/unmRSxtNgZJgbGhjErPMCJpk/qCMHCttqt23jgEazF6z3xJHh7siXYrQY8hRWx19UDXmPW4HyC1zyDop3ovTxitktLH9P2YNzOqMIZla+GjZnZmBFlkYH0P4PncTr+2DHzY0Ev0sjq/ZDUYj8Nv3GMevvNkDXper9TkxlkHafK3hVMgUlYyR5BFFsY1NULJDGt34h9KCyJuyI1j2CRXimPYRyFO1vMWz1yaIUD4BGmIp9ckSASz4KSrJlxK9FHiSMKC25XZQitZsgtR9Vzyl0fMEqPLBO0s/vJyUUQ7I2PKmOQEMqjdbKL8femsXq2NOskc88Evdj+mjXHfaxN0AsbO5Av0/IPv0Ro3S+jP2sIENCsMjxiNwGbceUM4UC1PN0VFFTqBuaMmYlkQ48qsMKKNKWS1tmd+QrsOFsqD7o6gfoBCMzKR41eOQUGWaOVoK3bQ4Q1Xx6BvizrvqfVyIcnLIj+oxJezC6EiJfz21LEFwSR7IArj2NClXdiR52IGOU7sO1DQjkerYhCGdht+4K45v18BQxMieJyv0jvN3LEqlhH2Ws2t7lR6rxJJJrQY+nzY7drzeAEyTxyQmUSow3MzBWQeJ4CUSPu59aqYmFB/h0UTH6iJhbTIvilNuZWG47WF1yTVf8AGuui4YTDysd0liiicmJpiCxBO5XHA8Q3rn496ol40310MfYR8bEGQUkQsWZ1A3eCUNx+Tz4i+G1uHJ78mZFHjZCPJ+6MiMBpCm7wR0O07PE0N5sfi+B/p3piTQzTZSJl9ti0OUqK3dYG9tWdx4r4AAq/nRv0ozfVpl5ECxRmGo543sSOKWloBtjAkLGQRa/20AsR4sP61TNHjybd0khqdn3+kdmCEMa+zyAv3rn9I5882IZpXRsWJwXgjQV2whUx7WpQRVgKSD/Gg9AxcV5JJ5Y5I8dZHl/fiRF7lgIG2uXJBJO0pVkn37PPKJEg+r34wbJDQrF3CHLEh+VUKFPPN3RJoaKo9QygkwA2wTGL9iPazvsUjZcaqY/HnbZO2yeOdJZ+KahnjH08sUx5EQt+LPe2KbLC6CErzzzwKGXJLJOzbYBkq2yba1tBGL2sGJB27TuO3ysgHjScfSJpMcZq5h3sSO4xKREHx7jRSigK5GwLd/IOiGeog5GOtLCkEily6moyFHO8sA6vyD5Ub/sRpOSIyrAqKciWXbJjP4hZFCnekzIoUCMetoS7A5N2thiRchceQww9q3SNUYGR3vaFVmO6MVvLC6+SKOneg4C5W/IGTkxbJT+yGTd3qBsVGONpoCqI5/vQDrbqgfEguOGWMkOwZHh5/cdgx8ovXkNoHHu9bx8dnxIY49qxsNhjlAYShS254FPjufk+RFf+up0fSEyPrcvMeeDtMqLum3N3EPEjUqgKtqQBdc6OvTdh25WY5XJlAgCZMp7bEeze0kMLBJFi6+dID/pjM+ng7EBd4o3JkkO0xxKAWNIG3sQx5YKQT88aLgZ4Ctn5RX6dKOIFu2YWm5h7BFmkNHk8cae7zY8s0LQoztEsSGKElYlY8B9g+zm/I3wfjU2Xo0gEEEeUHz4iryuCtpHyDsiAr0w5PJPzohpPN4Ow0WRkTAvkOODBx7FHwUE1sYMx/PF6DgscfthTCcmVlj2L4qigEh1P/wBL2dhqyf5rS/U4J6ebHyN8kid2CJV7ZAIp5WHO1+fzzXxqVOkbwyRx5ZdtoOY7IzgsCK8yLQGqNEDgVqjOp9LlimlRceKQB2O8naWslr2/HvWa9dk9Qm3eMUhWhR2j8D88/wDes1cEfPyo8vKZkjcoyNE7OoEW1Sd4DN5AgcXFyf5rgMPRmRMiFcrZiIN7ASMVS+dgUi2U/LNRHPB0aXpq7siYzuqQSVZYFgSAPtI2BeflST7vW+m9DkSLJgkC1JtllyCxXcD/AOMMTvY8fHHNfxoDCF3k7iY6I/HckR6WKh9/cZaYlfS7BXydO/qJFQxKGXIeEbmYoHfysK0kajey8mtgXn+NQ0/TcjYjRHIMUUU27G8TvK8laW9/s15AEVfOqUsE5/YkDSztGXnsfusqkbY4pARwT8lbH451FC6a80RlkxY2yUZQGyZ5t+xCfMPHusBRyECbxyCNFYbDjjGm7whpJpm7ZaQSC6G9gXi55BPjQAs+mf0nFMYu4EQSRkQmKJ+UQE2JwSVZ9tHhQb/vqR1Hp9kNjRJkSxzbmYbGYQtw4MJ+1h6NIDY45vUDWVJJjvjzZUML04BjVTIUUEnuqaqIhQD43uofOlupvBF1GWeQ9wS7GGY1oIxQ8E2ghnZRt52//Grs/UcbFVMUSv2J0MsU7sxZv/2yVG9VA9HjaOPepeXNFPA+PH2o8dpAkcfaoSPwXbzCrYFkFyCSL/Ggc6giw9ySeN5XuPsoASN1kQlnJG9wSPil45PvT0kU2Md7SPM6xlnjiv8AfYjguDfb21XBa9T+sCVZunmRDGisIUMyrKCB6b7qQnap3Xfr8a76jjtLFM0b/Tv3+4rQzOUBAAa/FLZufQKk/wBWgX/TH1EmK87t7f8AyTu4btnkBUqiykWDe01dfkNdRzWyGwWhnSDuE7lk8WkYcHYt+Skn0CLHyNTuhSPI8yiFYDK20k1+wKLXsU7XEhHm25TZHBq9AT9NK3YYY/ayhbsEH7CuvERMdgLGwG61O7+NAXJTdJlRPFHk9TWXbFGh2q0exTbxmQ+K8n7hZ2i9MZfSWwnMcWSMfvekkqSN2KkHaPBkZK9bnABF3qhitJLGuXCMaPqCkwyuFsSMKFF/FgGUA/a1ePutT85g2Tj4Un1EUbKC0SSF4mYsbRmKBlW/bf8AFaikOiYbN0vIi+oikiiBKyr4KshN0ZdxDR3yaCkfnVebqqZkGV3XMUscClmxmEq9tRZN7SKJJoHyI9HRM47X7Er7XE+5GdTJuAFERKCuwg0Abb818a83lQxPNlpkxwo7SCNCxMUm1vJjt8wxr7TY8r4GmIumWV+n9NjKrtnZe6sIIqA+jzZVitA3f9VH5AcjHbAikjijEWNEWeR45LmVWI2PZUhhQK7CL4HlxrRSeLF7nT50mSKStjR0iD0O2A9gjkMebN0BqhliORZXCdyYwh5YkamJW0YxO1UKLDcADx654CNLhZUsiLjOqZ+3uFRLaGC7Hd8QQx3AUPfPI+Hf0VA8GORG3YyZGYbJWZlLqCXPa4oCgAQ545/jQenSQ08eLFLjxfTmRHpe7KCRuQEMGQ8AD2f4Fc0k6Yjd8tunjaKMxLkMXAfmtkrEuhBqwVB/F1oIwibFiT92THnyz5y0XYleS++wUU19lG+PXOmJsVsfHxGzYzJNCe5HJGzEuG5ppAvdR+S1AbTQs88cfq+U5MDQP3HMIEmTM26FEHFoE4Dv8qKP5sXq5g5oniGajvHiLGwAlNFWSlU2T52L4JKH55vQeekzJMnMni7IzMKVQVchEbmhYLlN7LRA53L7rnTWHkwLJNiNMXxMUqYoyCff4dR3QwYkAKeAORWjdBlXPwtkiLAxPcieMJXLcDctiFjxYO1vI7fzrn9adPOQoZcd4sncI3jj98mlZ5FtRH83Qb3TDkaBXKxMiafMYvjRBVEMEn3DYaZ4iytRdhX323PH50x1LFgycVDgxSIsaFu0oPcDMKSwxb9ng+1o8EEVznVfHLO7JePZGkWP9LHvjSQ8SdzhgCOOSVNH2NdYGDL9ZkrkRlMSMlYI1U0zMKJRg1qfm6Ps+tBqTuzSYyI6S5MaGPKyGHCkU21GXgSeNXtIFevjRuldUM2U2VjwxiJAYpJWNOAPbNJ7JNcIFN8EldOrMxghTaqTvSiPy7cAB8Ed1DAsPgmrP40v0vIZJsyPIBYLbmOTYqMPdxjdtssRbNQNgewaonYGEEmSWR41hbd2oWYtGykhmmJqt4smpAPL/vQ5lhmLxPAuUY03488bKXYD5mK1tbdXsD1pnpmNExZXdXR4ZJMgSKBHArGwsi2GVxXoFQaY186B0mdZcSWWR5ZMREbHXsgb5bagaRRQUUAOfZJOgJFGDHky4+T2pFjTvEIXnQVRVt7EEnbYNA/jW/0/LFHkRdvIkeadO0ElW+06gkO/4NCgObvR8RotjIzBlkxoredfuYNtFKfTLz4i+aOl8aX6Z5cd7MmNcsYyCpaawSCHU7iVF1Z4sccCqhLJMiucdFaJAu7MyFVjIzL727h/p7qNLYIY/wA6ZzZtsvdlC5H+VKzLEm0MRRTuJfo2TQ5H9tPATwyTiImXuQGZhJIA6FhSqtigBQBs88ai4mcYFUsZEnyYw4EguOB/kqg5LMQKHz8fOqH+i5StBEZ89I5So3IQPH8D/gVrNV8VMJEVZZEElW29kVrPJta49+tZptVGy8cxxQSwgd6UKsEapvhj5skNamz7Jr49aF0vIk7+RDkwwytMAYwjkRsy3dbjyQ3JC0RR0ZMjsYxAoWUjDFz2wnILolko5B5/J1xFhmRhiwIsmPACYhJJ5Ka5al3M3J43VV6Ik99IlOW7EdQecwRuWsRgWtqpNhB6N2ef51b/AE1B2As0vlndxxPNJblOCoJIBIDALwSBX/RJnyBocqWAh9rod4WjuUAPe738jgce+ddSxSQ4Uk0KuhMiyGORldtpAUq1ryjDkEn+eK1KrXT4HGcpR+9KkDNPNfmwcnb2k+21P5b1xWgJLjrPj5aOuOGLiWUttlZgCpJQ+KoTd++a9aJ1/bkvEuCVuUFcjt1HuUi96njcB6LAkG659a5yoXKjDikdlx+0ZRIo7IUf7t7CRkIB/pIuudQc9djZtpk2yYjqimddq+R3eSuT20FVuBG03XzpuDHjgwQWByY4pDMwZF3OADbMJuO2Phlq6G0/BB07dJLK8GWY0yWNExESBwPECyUERAsNzpbp+VM+OzQQrHJCezNMrbt0hYKzIm3zNc0xUc+zoHv1/lNJFBGGbbkoojhRaABrmQtzGg9ErRr+BoXXensqfT4ksfCp+2RuhUj2O5Ja7CvPaJv5C83p/NwY0bG7pdZ54X70gajtWiaRtyqTwTXA8tSJcYzxq3eP+cVkxYTsVVUCtzePmxoV8ru/6Cjk9KjhxHxYkVu6d0mUyqI428S5ezuo1aoAQbA9aW6GXmMx35GQkUS9yOYNCJBwQ8bDiwoIpq3WATWiN1aWLDx4hjyvOiEussL7QAKbuGtri/TCgONDPUAkcMk7OTuVJJkO6FX9gFY63VYFevz/ACGuk9GibHzSVAxHdpI9wcPCQBVR7fA3zvTyqvxxAh61KsGUkyHLhmKrJkRWr7hVhnNMaFbQ1A+r5OvaYPflh295BKC/7yBCko5KqSysoI4tT5VfPs6i4WMZ4cbH+qjC5jMJRDGAGkRbY7wGWxQorS8etQV54IOniKUO8n9KAqWEO4WSFFhXNfco5J59nSfWWmKytkwO6yLGRDGRMw5bkgECJjY/cUmuOeNV8PvqxxMhgYEj7UQcnuSMRwS/jvZVBvtkHm/ep+Lk0ZJoQDjJGIsmSYiOwgICo3EnBP3M3s+9BmPZnZNu7GlG2tthShJSPZyyliSWlZVFgcng6FD02VXHbzgFLdtzIxbyumjXcdy+9qmOxdnj57xsadsaPKwMiQSLx2pO1IShILKzBS5YAcBmLfHs6lZkEskbRQ4rCJ5RKFkkAyEYGy0YYWoevHdfzxXGqivmHYpZsXyiIHfCxrIJbpQPqAvcFH/Vssb/AL01FFiSPJHB2XeQ93YCNqSJQJmUMRI+87t1HkD8A6jZck+Tg/6WV9RHKBOrIplkC8gAlNiVYawnwL96r50iTrFDHD4TgeYUoUK3vMjCt17eANt0fY0E3p0rSzyRd1J0fIQzOCkrFQtbDEtrXoGRVFD54vTWO5LyYUjY0/7pk+niYBY4lqlG2tr7iDta75/4VxMrHaDGnYuZ4Q8e503LuFhQyqF3WQNvqzq9W1u7LGibl/cmZ90qMVrZHSfbYB5IvnjQI/p3HZ8rNyBD2kjtVUK6Shtq7SAT2zak87eOPek+lx97vvKEaeJkd0isdxQfLexP7hq1qkF3/wAF/TEgx8ecfUCUd0WqGiT7sb6tnIAPNfydMYmN3PqC7tW9ZZFdgSo9nyiYgJtFbH+7byCNRXn/ANJ//qmQUDRw5AKhYZCEBVd1lwFcUB/StW1Xxqx+lnTuPjOiwzQ7uySFJpiadHamZ5LIJ98c6JjMrZExMaJ05lH7+8hmY+NRlTSjdwUFL74snRum4QypZmlLd+FgEWZYyRXlG5VFRgBfHkAedUSum9Txl7xSRccRxsr43KESHxDOCdkrWPu8jyLPrXYylgTuTgdmREIx5D5CmC75GfcxFkNQIXj18nnqGQ2PvYBYsid1WUvGZUmqgxj2kEHb5FaPqr+dN9Vxe843qfpUdZQdok3Koou0Z/cXnxC7StDk0dAf9OQvE3UhkglztYcjaU2mgj0t3yKoEV7PvUx9sUsSxKySDccbtkhFB9xlLCsxu6on5NAXrr9Q45kyWV2imlEX7UEzAWG/2hCF3ivY+D7+dKYcAgyQaftwzB2W2laKR027rrlBdV8Vd6qLMmGkZbHL9zM7ffkeQb9lnlVAIUXyBtAr3zpdpO4yyLjyRvjv2zvO5wrEE9u+SzCqPxZB1PxZmd5qIbIhkDvlSIl729RfngAKNt/GrhePOhOTEpjyEVu25IPmKJABuqI+ReikvppJIZkj/d/cdlE33PQP7XPsq3ypINe/euFyYocOFclmZApSQv8Ac0h4AKtZAHJ+7jjXE2ewyImhLyS2HKy+JiXabNqNtPyOaN/9aQzs2dkxwhLNkSMNhUEKhJJfyF3Vnk1qo9DBn46pGJtjyhFDtY5IUc8nWa8r1nHg7z7cfcL+4Iwvgfi9ZqilnyxwJlQCNY8d4t0br/Xu/wB4A3WD6NE8646GsWPixT4+9jKyhXJCtCWpTVghrPu7/trNZqVVL9R9L+plXGWZRIBbKYwVkvyvkUpIvkAHWTRMeoxxY7kKuMwmilZiAvHgrC6/grres1lSmOW+gXtRujwNvihV1QhHJCkSU4bgnhgpPyBxqhhTqEnhaNe7InCMpphssrIwdi3HFjaP41ms0QCDE+pwUdGkVHKkJCQhAA+xi+7cnvjgfxor9bhQTXB2e2mz6el2SHi3OzxND4YeroXrNZoOujwzyJiBZx9XTSvGdxjeAtW1VP7a8FaHGncZO1PKd26NFDRR7FAx2a14A8aez9t1zdXzrWanpXmsrGL56PjSvPLy5ioJGsZPI3Mb2knkbST+Nel6SXTJyIo02KDRY00Sn2SIwwYcFQKv+a1ms0Ur1DDDwSGA1DIe0Wj454BLhqJ3MaoDgfJ0vmtjqViyiqzkdmKSIN+0K8WS18STweb4HxrNZpCprP8AWRtihZIOyyGAxsGHPBldmKs3ydtA/wB74Yy895MLMed7mxpdqurMgJFbXCgONxHPl8k+tZrNVkfqkDrhOIKB3K2O7EsTuok3wQ6ckEihfF+tWcIrMiHu7cuaMxO8alCWi/qB54Bv2ebHr1rNZp4qF3Jv8MBbuyGV5O7L4dwIAVDcvV+vRuvjVPHxzBiQikmWJBNG0Sdsn0FJRztY0SSzEH5AvWazQLdTOSmRktjrZMKkbCoKsftaTfw5o++doFCtLZEMUWV2JMmd5p5UMiCgoJXhr28cgDwKngXxrNZqUPTfp0S92MRxHOipvWxZEshC5X87STtII40h+n8BHieBixyMkMMiQekuyoC2NwAFbrv+DfGazSBkQO0OOIoTLDBKFQySAcDx3kc7lHkQpo+uPnQekJjDKzJImZcftrFPKi7PNv8AagF/IF1fPv51ms1aGMboUUUn0yhjJGTIil2OyMH3E10hJIsEG+bB0m2IZjk5aZBRhtWYlSxRUslUPAYNXNqvs1rNZogk/WslshHfGj7R2yO5IYCCuSo+5WPsqAbqr1tw4P1rzyMJZ1TGjj8VKE0BJfLAgnhjxrNZqq66ZksMjqLKiyVIhYL42QB4qTRG1Rd15H8aDHm/TRt3Ce20rfTKSSx3XaswI/4JP99ZrNEFm6iySA5bKwykCLGiXsKnjcTQNbuSPfwNLxQkM2Ft7W2Q7DEfuJ5uz6VU42n361ms1Ytbbpu0kCWVxZIbdV2b9fFXX/Gs1ms1th//2Q==;" parent="1" vertex="1">
          <mxGeometry x="457.5" y="430.11" width="90" height="59.89" as="geometry" />
        </mxCell>
        <mxCell id="Uv_JVgX45lE9spc81KCM-5" value="Normal(0,1)" style="rounded=0;whiteSpace=wrap;html=1;fillColor=#FFFFFF;fontSize=14;fontStyle=1" parent="1" vertex="1">
          <mxGeometry x="455" y="443.5" width="95" height="26.5" as="geometry" />
        </mxCell>
        <mxCell id="Uv_JVgX45lE9spc81KCM-13" style="edgeStyle=none;rounded=0;orthogonalLoop=1;jettySize=auto;html=1;exitX=0;exitY=0;exitDx=0;exitDy=0;strokeWidth=2;fontSize=14;" parent="1" source="Uv_JVgX45lE9spc81KCM-7" edge="1">
          <mxGeometry relative="1" as="geometry">
            <mxPoint x="290" y="250" as="targetPoint" />
          </mxGeometry>
        </mxCell>
        <mxCell id="Uv_JVgX45lE9spc81KCM-14" style="edgeStyle=none;rounded=0;orthogonalLoop=1;jettySize=auto;html=1;exitX=1;exitY=0;exitDx=0;exitDy=0;entryX=0.5;entryY=1;entryDx=0;entryDy=0;strokeWidth=2;fontSize=14;" parent="1" source="Uv_JVgX45lE9spc81KCM-7" target="Uv_JVgX45lE9spc81KCM-11" edge="1">
          <mxGeometry relative="1" as="geometry" />
        </mxCell>
        <mxCell id="Uv_JVgX45lE9spc81KCM-17" style="edgeStyle=none;rounded=0;orthogonalLoop=1;jettySize=auto;html=1;exitX=0.5;exitY=0;exitDx=0;exitDy=0;entryX=1;entryY=1;entryDx=0;entryDy=0;strokeWidth=2;fontSize=14;" parent="1" source="Uv_JVgX45lE9spc81KCM-7" target="Uv_JVgX45lE9spc81KCM-10" edge="1">
          <mxGeometry relative="1" as="geometry" />
        </mxCell>
        <mxCell id="Uv_JVgX45lE9spc81KCM-7" value="" style="ellipse;whiteSpace=wrap;html=1;aspect=fixed;gradientColor=#ea6b66;fillColor=#f8cecc;strokeColor=#b85450;" parent="1" vertex="1">
          <mxGeometry x="310" y="270" width="40" height="40" as="geometry" />
        </mxCell>
        <mxCell id="Uv_JVgX45lE9spc81KCM-12" style="edgeStyle=none;rounded=0;orthogonalLoop=1;jettySize=auto;html=1;exitX=1;exitY=0;exitDx=0;exitDy=0;entryX=0.5;entryY=1;entryDx=0;entryDy=0;strokeWidth=2;fontSize=14;" parent="1" source="Uv_JVgX45lE9spc81KCM-8" target="Uv_JVgX45lE9spc81KCM-9" edge="1">
          <mxGeometry relative="1" as="geometry" />
        </mxCell>
        <mxCell id="Uv_JVgX45lE9spc81KCM-15" style="edgeStyle=none;rounded=0;orthogonalLoop=1;jettySize=auto;html=1;exitX=0;exitY=0;exitDx=0;exitDy=0;entryX=0.722;entryY=1.108;entryDx=0;entryDy=0;entryPerimeter=0;strokeWidth=2;fontSize=14;" parent="1" source="Uv_JVgX45lE9spc81KCM-8" target="Uv_JVgX45lE9spc81KCM-10" edge="1">
          <mxGeometry relative="1" as="geometry" />
        </mxCell>
        <mxCell id="Uv_JVgX45lE9spc81KCM-16" style="edgeStyle=none;rounded=0;orthogonalLoop=1;jettySize=auto;html=1;exitX=0.5;exitY=0;exitDx=0;exitDy=0;entryX=0;entryY=1;entryDx=0;entryDy=0;strokeWidth=2;fontSize=14;" parent="1" source="Uv_JVgX45lE9spc81KCM-8" target="Uv_JVgX45lE9spc81KCM-11" edge="1">
          <mxGeometry relative="1" as="geometry" />
        </mxCell>
        <mxCell id="Uv_JVgX45lE9spc81KCM-8" value="" style="ellipse;whiteSpace=wrap;html=1;aspect=fixed;gradientColor=#ea6b66;fillColor=#f8cecc;strokeColor=#b85450;" parent="1" vertex="1">
          <mxGeometry x="230" y="270" width="40" height="40" as="geometry" />
        </mxCell>
        <mxCell id="Uv_JVgX45lE9spc81KCM-9" value="" style="ellipse;whiteSpace=wrap;html=1;aspect=fixed;gradientColor=#ea6b66;fillColor=#f8cecc;strokeColor=#b85450;" parent="1" vertex="1">
          <mxGeometry x="270" y="210" width="40" height="40" as="geometry" />
        </mxCell>
        <mxCell id="Uv_JVgX45lE9spc81KCM-10" value="" style="ellipse;whiteSpace=wrap;html=1;aspect=fixed;gradientColor=#ea6b66;fillColor=#f8cecc;strokeColor=#b85450;" parent="1" vertex="1">
          <mxGeometry x="180" y="210" width="40" height="40" as="geometry" />
        </mxCell>
        <mxCell id="Uv_JVgX45lE9spc81KCM-11" value="" style="ellipse;whiteSpace=wrap;html=1;aspect=fixed;gradientColor=#ea6b66;fillColor=#f8cecc;strokeColor=#b85450;" parent="1" vertex="1">
          <mxGeometry x="350" y="210" width="40" height="40" as="geometry" />
        </mxCell>
        <mxCell id="Uv_JVgX45lE9spc81KCM-18" value="&lt;i&gt;Reconstucted Data&lt;/i&gt;" style="rounded=1;whiteSpace=wrap;html=1;fillColor=#FFFFFF;fontSize=14;fontStyle=1;dashed=1;dashPattern=1 2;" parent="1" vertex="1">
          <mxGeometry x="190" y="140" width="190" height="30" as="geometry" />
        </mxCell>
        <mxCell id="GIEwC9xjHq5fHoFhXlIX-14" value="&lt;span style=&quot;font-weight: normal&quot;&gt;&lt;i&gt;Secondary Noise for Negative Samples&lt;/i&gt;&lt;/span&gt;" style="rounded=0;whiteSpace=wrap;html=1;fillColor=#FFFFFF;fontSize=14;fontStyle=1;strokeColor=none;" vertex="1" parent="1">
          <mxGeometry x="457.5" y="490" width="90" height="70" as="geometry" />
        </mxCell>
        <mxCell id="GIEwC9xjHq5fHoFhXlIX-20" style="edgeStyle=none;rounded=0;orthogonalLoop=1;jettySize=auto;html=1;strokeColor=#004000;strokeWidth=4;exitX=0.5;exitY=0;exitDx=0;exitDy=0;entryX=0.5;entryY=1;entryDx=0;entryDy=0;" edge="1" parent="1" source="GIEwC9xjHq5fHoFhXlIX-16" target="GIEwC9xjHq5fHoFhXlIX-1">
          <mxGeometry relative="1" as="geometry">
            <mxPoint x="590" y="350.0000000000001" as="targetPoint" />
          </mxGeometry>
        </mxCell>
        <mxCell id="GIEwC9xjHq5fHoFhXlIX-16" value="" style="shape=orEllipse;perimeter=ellipsePerimeter;whiteSpace=wrap;html=1;backgroundOutline=1;strokeColor=#6E19FF;strokeWidth=3;fillColor=none;" vertex="1" parent="1">
          <mxGeometry x="480" y="315" width="40" height="40" as="geometry" />
        </mxCell>
        <mxCell id="GIEwC9xjHq5fHoFhXlIX-17" value="" style="group;strokeColor=#FF3399;strokeWidth=2;perimeterSpacing=1;dashed=1;rounded=1;dashPattern=1 1;" vertex="1" connectable="0" parent="1">
          <mxGeometry x="425" y="200" width="150" height="80" as="geometry" />
        </mxCell>
        <mxCell id="GIEwC9xjHq5fHoFhXlIX-1" value="" style="ellipse;whiteSpace=wrap;html=1;aspect=fixed;strokeColor=#005700;fontColor=#ffffff;fillColor=#BEFA19;" vertex="1" parent="GIEwC9xjHq5fHoFhXlIX-17">
          <mxGeometry x="60" y="50" width="30" height="30" as="geometry" />
        </mxCell>
        <mxCell id="GIEwC9xjHq5fHoFhXlIX-2" value="" style="ellipse;whiteSpace=wrap;html=1;aspect=fixed;strokeColor=#005700;fontColor=#ffffff;fillColor=#BEFA19;" vertex="1" parent="GIEwC9xjHq5fHoFhXlIX-17">
          <mxGeometry y="50" width="30" height="30" as="geometry" />
        </mxCell>
        <mxCell id="GIEwC9xjHq5fHoFhXlIX-3" value="" style="ellipse;whiteSpace=wrap;html=1;aspect=fixed;strokeColor=#005700;fontColor=#ffffff;fillColor=#BEFA19;" vertex="1" parent="GIEwC9xjHq5fHoFhXlIX-17">
          <mxGeometry x="120" y="50" width="30" height="30" as="geometry" />
        </mxCell>
        <mxCell id="GIEwC9xjHq5fHoFhXlIX-6" value="" style="ellipse;whiteSpace=wrap;html=1;aspect=fixed;strokeColor=#005700;fontColor=#ffffff;fillColor=#BEFA19;" vertex="1" parent="GIEwC9xjHq5fHoFhXlIX-17">
          <mxGeometry x="30" width="30" height="30" as="geometry" />
        </mxCell>
        <mxCell id="GIEwC9xjHq5fHoFhXlIX-13" style="edgeStyle=none;rounded=0;orthogonalLoop=1;jettySize=auto;html=1;entryX=0.5;entryY=1;entryDx=0;entryDy=0;" edge="1" parent="GIEwC9xjHq5fHoFhXlIX-17" source="GIEwC9xjHq5fHoFhXlIX-1" target="GIEwC9xjHq5fHoFhXlIX-6">
          <mxGeometry relative="1" as="geometry" />
        </mxCell>
        <mxCell id="GIEwC9xjHq5fHoFhXlIX-8" style="rounded=0;orthogonalLoop=1;jettySize=auto;html=1;entryX=0.5;entryY=1;entryDx=0;entryDy=0;" edge="1" parent="GIEwC9xjHq5fHoFhXlIX-17" source="GIEwC9xjHq5fHoFhXlIX-2" target="GIEwC9xjHq5fHoFhXlIX-6">
          <mxGeometry relative="1" as="geometry" />
        </mxCell>
        <mxCell id="GIEwC9xjHq5fHoFhXlIX-10" style="edgeStyle=none;rounded=0;orthogonalLoop=1;jettySize=auto;html=1;entryX=1;entryY=1;entryDx=0;entryDy=0;" edge="1" parent="GIEwC9xjHq5fHoFhXlIX-17" source="GIEwC9xjHq5fHoFhXlIX-3" target="GIEwC9xjHq5fHoFhXlIX-6">
          <mxGeometry relative="1" as="geometry" />
        </mxCell>
        <mxCell id="GIEwC9xjHq5fHoFhXlIX-7" value="" style="ellipse;whiteSpace=wrap;html=1;aspect=fixed;strokeColor=#005700;fontColor=#ffffff;fillColor=#BEFA19;" vertex="1" parent="GIEwC9xjHq5fHoFhXlIX-17">
          <mxGeometry x="90" width="30" height="30" as="geometry" />
        </mxCell>
        <mxCell id="GIEwC9xjHq5fHoFhXlIX-9" style="edgeStyle=none;rounded=0;orthogonalLoop=1;jettySize=auto;html=1;entryX=0.5;entryY=1;entryDx=0;entryDy=0;" edge="1" parent="GIEwC9xjHq5fHoFhXlIX-17" source="GIEwC9xjHq5fHoFhXlIX-1" target="GIEwC9xjHq5fHoFhXlIX-7">
          <mxGeometry relative="1" as="geometry" />
        </mxCell>
        <mxCell id="GIEwC9xjHq5fHoFhXlIX-12" style="edgeStyle=none;rounded=0;orthogonalLoop=1;jettySize=auto;html=1;entryX=0;entryY=1;entryDx=0;entryDy=0;" edge="1" parent="GIEwC9xjHq5fHoFhXlIX-17" source="GIEwC9xjHq5fHoFhXlIX-2" target="GIEwC9xjHq5fHoFhXlIX-7">
          <mxGeometry relative="1" as="geometry" />
        </mxCell>
        <mxCell id="GIEwC9xjHq5fHoFhXlIX-23" value="&lt;b&gt;&lt;font style=&quot;font-size: 16px&quot;&gt;Autoencoder&lt;/font&gt;&lt;/b&gt;" style="rounded=0;whiteSpace=wrap;html=1;dashed=1;strokeWidth=2;fillColor=none;strokeColor=#666666;rotation=-90;" vertex="1" parent="1">
          <mxGeometry x="60" y="280" width="185" height="30" as="geometry" />
        </mxCell>
        <mxCell id="GIEwC9xjHq5fHoFhXlIX-24" value="&lt;b&gt;&lt;font style=&quot;font-size: 17px&quot;&gt;$$\mathcal{P}(x)$$&lt;/font&gt;&lt;/b&gt;" style="text;html=1;align=center;verticalAlign=middle;resizable=0;points=[];autosize=1;strokeColor=#000000;perimeterSpacing=1;opacity=90;fillColor=#FFFF26;" vertex="1" parent="1">
          <mxGeometry x="410" y="145" width="170" height="20" as="geometry" />
        </mxCell>
        <mxCell id="GIEwC9xjHq5fHoFhXlIX-27" value="" style="endArrow=classic;html=1;strokeColor=#004000;strokeWidth=4;" edge="1" parent="1">
          <mxGeometry width="50" height="50" relative="1" as="geometry">
            <mxPoint x="502" y="200" as="sourcePoint" />
            <mxPoint x="502" y="170" as="targetPoint" />
          </mxGeometry>
        </mxCell>
        <mxCell id="I6eLt330WT-DuvhPRt3Y-4" value="" style="ellipse;whiteSpace=wrap;html=1;aspect=fixed;gradientColor=#ea6b66;fillColor=#f8cecc;strokeColor=#b85450;" parent="1" vertex="1">
          <mxGeometry x="270" y="420" width="40" height="40" as="geometry" />
        </mxCell>
        <mxCell id="I6eLt330WT-DuvhPRt3Y-7" value="" style="ellipse;whiteSpace=wrap;html=1;aspect=fixed;gradientColor=#ea6b66;fillColor=#f8cecc;strokeColor=#b85450;" parent="1" vertex="1">
          <mxGeometry x="310" y="360" width="40" height="40" as="geometry" />
        </mxCell>
        <mxCell id="I6eLt330WT-DuvhPRt3Y-12" style="rounded=0;orthogonalLoop=1;jettySize=auto;html=1;entryX=0.5;entryY=1;entryDx=0;entryDy=0;exitX=0.5;exitY=0;exitDx=0;exitDy=0;" parent="1" source="I6eLt330WT-DuvhPRt3Y-4" target="I6eLt330WT-DuvhPRt3Y-7" edge="1">
          <mxGeometry x="160" y="360" as="geometry" />
        </mxCell>
        <mxCell id="I6eLt330WT-DuvhPRt3Y-13" style="edgeStyle=none;rounded=0;orthogonalLoop=1;jettySize=auto;html=1;entryX=0.5;entryY=1;entryDx=0;entryDy=0;" parent="1" source="I6eLt330WT-DuvhPRt3Y-8" target="I6eLt330WT-DuvhPRt3Y-7" edge="1">
          <mxGeometry x="160" y="360" as="geometry" />
        </mxCell>
        <mxCell id="I6eLt330WT-DuvhPRt3Y-8" value="" style="ellipse;whiteSpace=wrap;html=1;aspect=fixed;gradientColor=#ea6b66;fillColor=#f8cecc;strokeColor=#b85450;" parent="1" vertex="1">
          <mxGeometry x="350" y="420" width="40" height="40" as="geometry" />
        </mxCell>
        <mxCell id="I6eLt330WT-DuvhPRt3Y-15" style="edgeStyle=none;rounded=0;orthogonalLoop=1;jettySize=auto;html=1;exitX=0.736;exitY=0.077;exitDx=0;exitDy=0;exitPerimeter=0;" parent="1" source="I6eLt330WT-DuvhPRt3Y-9" edge="1">
          <mxGeometry x="160" y="360" as="geometry">
            <mxPoint x="320" y="400" as="targetPoint" />
          </mxGeometry>
        </mxCell>
        <mxCell id="I6eLt330WT-DuvhPRt3Y-9" value="" style="ellipse;whiteSpace=wrap;html=1;aspect=fixed;gradientColor=#ea6b66;fillColor=#f8cecc;strokeColor=#b85450;" parent="1" vertex="1">
          <mxGeometry x="190" y="420" width="40" height="40" as="geometry" />
        </mxCell>
        <mxCell id="I6eLt330WT-DuvhPRt3Y-10" value="" style="ellipse;whiteSpace=wrap;html=1;aspect=fixed;gradientColor=#ea6b66;fillColor=#f8cecc;strokeColor=#b85450;" parent="1" vertex="1">
          <mxGeometry x="230" y="360" width="40" height="40" as="geometry" />
        </mxCell>
        <mxCell id="I6eLt330WT-DuvhPRt3Y-14" style="edgeStyle=none;rounded=0;orthogonalLoop=1;jettySize=auto;html=1;entryX=0.5;entryY=1;entryDx=0;entryDy=0;" parent="1" source="I6eLt330WT-DuvhPRt3Y-4" target="I6eLt330WT-DuvhPRt3Y-10" edge="1">
          <mxGeometry x="160" y="360" as="geometry" />
        </mxCell>
        <mxCell id="I6eLt330WT-DuvhPRt3Y-16" style="edgeStyle=none;rounded=0;orthogonalLoop=1;jettySize=auto;html=1;entryX=0.5;entryY=1;entryDx=0;entryDy=0;exitX=0;exitY=0;exitDx=0;exitDy=0;" parent="1" source="I6eLt330WT-DuvhPRt3Y-8" target="I6eLt330WT-DuvhPRt3Y-10" edge="1">
          <mxGeometry x="160" y="360" as="geometry" />
        </mxCell>
        <mxCell id="I6eLt330WT-DuvhPRt3Y-11" style="rounded=0;orthogonalLoop=1;jettySize=auto;html=1;exitX=0.5;exitY=0;exitDx=0;exitDy=0;entryX=0.5;entryY=1;entryDx=0;entryDy=0;" parent="1" source="I6eLt330WT-DuvhPRt3Y-9" target="I6eLt330WT-DuvhPRt3Y-10" edge="1">
          <mxGeometry x="160" y="360" as="geometry" />
        </mxCell>
        <mxCell id="I6eLt330WT-DuvhPRt3Y-17" value="&lt;font style=&quot;font-size: 14px&quot;&gt;Emb&lt;/font&gt;" style="rounded=0;whiteSpace=wrap;html=1;fontStyle=1;fontSize=13;" parent="1" vertex="1">
          <mxGeometry x="160" y="490" width="40" height="20" as="geometry" />
        </mxCell>
        <mxCell id="I6eLt330WT-DuvhPRt3Y-19" value="" style="shape=orEllipse;perimeter=ellipsePerimeter;whiteSpace=wrap;html=1;backgroundOutline=1;" parent="1" vertex="1">
          <mxGeometry x="210" y="490" width="20" height="20" as="geometry" />
        </mxCell>
        <mxCell id="I6eLt330WT-DuvhPRt3Y-21" value="Linear X-form" style="rounded=0;whiteSpace=wrap;html=1;fontStyle=1" parent="1" vertex="1">
          <mxGeometry x="380" y="480" width="50" height="30" as="geometry" />
        </mxCell>
        <mxCell id="I6eLt330WT-DuvhPRt3Y-24" value="" style="shape=orEllipse;perimeter=ellipsePerimeter;whiteSpace=wrap;html=1;backgroundOutline=1;" parent="1" vertex="1">
          <mxGeometry x="290" y="490" width="20" height="20" as="geometry" />
        </mxCell>
        <mxCell id="I6eLt330WT-DuvhPRt3Y-26" value="&lt;font style=&quot;font-size: 14px&quot;&gt;Emb&lt;/font&gt;" style="rounded=0;whiteSpace=wrap;html=1;fontStyle=1;fontSize=13;" parent="1" vertex="1">
          <mxGeometry x="240" y="490" width="40" height="20" as="geometry" />
        </mxCell>
        <mxCell id="I6eLt330WT-DuvhPRt3Y-42" value="" style="group" parent="1" vertex="1" connectable="0">
          <mxGeometry x="320" y="495" width="50" height="10" as="geometry" />
        </mxCell>
        <mxCell id="I6eLt330WT-DuvhPRt3Y-27" value="" style="ellipse;whiteSpace=wrap;html=1;aspect=fixed;fillColor=#001C0E;" parent="I6eLt330WT-DuvhPRt3Y-42" vertex="1">
          <mxGeometry x="40" width="10" height="10" as="geometry" />
        </mxCell>
        <mxCell id="I6eLt330WT-DuvhPRt3Y-28" value="" style="ellipse;whiteSpace=wrap;html=1;aspect=fixed;fillColor=#001C0E;" parent="I6eLt330WT-DuvhPRt3Y-42" vertex="1">
          <mxGeometry x="20" width="10" height="10" as="geometry" />
        </mxCell>
        <mxCell id="I6eLt330WT-DuvhPRt3Y-31" value="" style="ellipse;whiteSpace=wrap;html=1;aspect=fixed;fillColor=#001C0E;" parent="I6eLt330WT-DuvhPRt3Y-42" vertex="1">
          <mxGeometry width="10" height="10" as="geometry" />
        </mxCell>
        <mxCell id="GIEwC9xjHq5fHoFhXlIX-33" value="&lt;b&gt;&lt;font style=&quot;font-size: 14px&quot;&gt;Density Estimation Network&lt;/font&gt;&lt;/b&gt;" style="rounded=0;whiteSpace=wrap;html=1;dashed=1;dashPattern=1 1;strokeColor=#666666;strokeWidth=2;fillColor=none;opacity=90;rotation=90;" vertex="1" parent="1">
          <mxGeometry x="490" y="275" width="200" height="30" as="geometry" />
        </mxCell>
      </root>
    </mxGraphModel>
  </diagram>
</mxfile>
